<?xml version="1.0" encoding="UTF-8"?>
<svg width="207px" height="64px" viewBox="0 0 207 64" version="1.1" xmlns="http://www.w3.org/2000/svg" xmlns:xlink="http://www.w3.org/1999/xlink">
    <title>Group 2</title>
    <g id="Symbols" stroke="none" stroke-width="1" fill="none" fill-rule="evenodd">
        <g id="Nav" transform="translate(-45.000000, -10.000000)">
            <g id="Group-2" transform="translate(45.000000, 10.000000)">
                <path d="M101.144,34 C101.349333,34 101.526667,33.9253333 101.676,33.776 C101.825333,33.6266667 101.9,33.4493333 101.9,33.244 L101.9,33.244 L101.9,27.252 L105.316,33.356 C105.353333,33.4306667 105.460667,33.5566667 105.638,33.734 C105.815333,33.9113333 106.090667,34 106.464,34 L106.464,34 L112.848,34 C113.016,34 113.160667,33.9393333 113.282,33.818 C113.403333,33.6966667 113.464,33.552 113.464,33.384 C113.464,33.2533333 113.436,33.1506667 113.38,33.076 L113.38,33.076 L107.864,23.78 L112.904,15.324 C112.96,15.2306667 112.988,15.128 112.988,15.016 C112.988,14.848 112.927333,14.7033333 112.806,14.582 C112.684667,14.4606667 112.54,14.4 112.372,14.4 L112.372,14.4 L106.184,14.4 C105.885333,14.4 105.647333,14.4653333 105.47,14.596 C105.292667,14.7266667 105.157333,14.8666667 105.064,15.016 L105.064,15.016 L101.9,20.7 L101.9,15.156 C101.9,14.9506667 101.825333,14.7733333 101.676,14.624 C101.526667,14.4746667 101.349333,14.4 101.144,14.4 L101.144,14.4 L95.796,14.4 C95.5906667,14.4 95.4133333,14.4746667 95.264,14.624 C95.1146667,14.7733333 95.04,14.9506667 95.04,15.156 L95.04,15.156 L95.04,33.244 C95.04,33.4493333 95.1146667,33.6266667 95.264,33.776 C95.4133333,33.9253333 95.5906667,34 95.796,34 L95.796,34 L101.144,34 Z M121.528,34 C121.733333,34 121.910667,33.9253333 122.06,33.776 C122.209333,33.6266667 122.284,33.4493333 122.284,33.244 L122.284,33.244 L122.284,15.156 C122.284,14.9506667 122.209333,14.7733333 122.06,14.624 C121.910667,14.4746667 121.733333,14.4 121.528,14.4 L121.528,14.4 L115.816,14.4 C115.610667,14.4 115.433333,14.4746667 115.284,14.624 C115.134667,14.7733333 115.06,14.9506667 115.06,15.156 L115.06,15.156 L115.06,33.244 C115.06,33.4493333 115.134667,33.6266667 115.284,33.776 C115.433333,33.9253333 115.610667,34 115.816,34 L115.816,34 L121.528,34 Z M136.06,34 C136.265333,34 136.442667,33.9253333 136.592,33.776 C136.741333,33.6266667 136.816,33.4493333 136.816,33.244 L136.816,33.244 L136.816,20.42 L141.464,20.42 C141.669333,20.42 141.846667,20.3453333 141.996,20.196 C142.145333,20.0466667 142.22,19.8693333 142.22,19.664 L142.22,19.664 L142.22,15.156 C142.22,14.9506667 142.145333,14.7733333 141.996,14.624 C141.846667,14.4746667 141.669333,14.4 141.464,14.4 L141.464,14.4 L125.056,14.4 C124.850667,14.4 124.673333,14.4746667 124.524,14.624 C124.374667,14.7733333 124.3,14.9506667 124.3,15.156 L124.3,15.156 L124.3,19.664 C124.3,19.8693333 124.374667,20.0466667 124.524,20.196 C124.673333,20.3453333 124.850667,20.42 125.056,20.42 L125.056,20.42 L129.704,20.42 L129.704,33.244 C129.704,33.4493333 129.778667,33.6266667 129.928,33.776 C130.077333,33.9253333 130.254667,34 130.46,34 L130.46,34 L136.06,34 Z M154.932,34 C155.137333,34 155.314667,33.9253333 155.464,33.776 C155.613333,33.6266667 155.688,33.4493333 155.688,33.244 L155.688,33.244 L155.688,20.42 L160.336,20.42 C160.541333,20.42 160.718667,20.3453333 160.868,20.196 C161.017333,20.0466667 161.092,19.8693333 161.092,19.664 L161.092,19.664 L161.092,15.156 C161.092,14.9506667 161.017333,14.7733333 160.868,14.624 C160.718667,14.4746667 160.541333,14.4 160.336,14.4 L160.336,14.4 L143.928,14.4 C143.722667,14.4 143.545333,14.4746667 143.396,14.624 C143.246667,14.7733333 143.172,14.9506667 143.172,15.156 L143.172,15.156 L143.172,19.664 C143.172,19.8693333 143.246667,20.0466667 143.396,20.196 C143.545333,20.3453333 143.722667,20.42 143.928,20.42 L143.928,20.42 L148.576,20.42 L148.576,33.244 C148.576,33.4493333 148.650667,33.6266667 148.8,33.776 C148.949333,33.9253333 149.126667,34 149.332,34 L149.332,34 L154.932,34 Z M178.452,34 C178.657333,34 178.834667,33.9253333 178.984,33.776 C179.133333,33.6266667 179.208,33.4493333 179.208,33.244 L179.208,33.244 L179.208,29.296 C179.208,29.0906667 179.133333,28.9133333 178.984,28.764 C178.834667,28.6146667 178.657333,28.54 178.452,28.54 L178.452,28.54 L169.828,28.54 L169.828,26.776 L177.612,26.776 C177.817333,26.776 177.994667,26.7013333 178.144,26.552 C178.293333,26.4026667 178.368,26.2253333 178.368,26.02 L178.368,26.02 L178.368,22.38 C178.368,22.1746667 178.293333,21.9973333 178.144,21.848 C177.994667,21.6986667 177.817333,21.624 177.612,21.624 L177.612,21.624 L169.828,21.624 L169.828,19.86 L178.228,19.86 C178.433333,19.86 178.610667,19.7853333 178.76,19.636 C178.909333,19.4866667 178.984,19.3093333 178.984,19.104 L178.984,19.104 L178.984,15.156 C178.984,14.9506667 178.909333,14.7733333 178.76,14.624 C178.610667,14.4746667 178.433333,14.4 178.228,14.4 L178.228,14.4 L163.864,14.4 C163.658667,14.4 163.481333,14.4746667 163.332,14.624 C163.182667,14.7733333 163.108,14.9506667 163.108,15.156 L163.108,15.156 L163.108,33.244 C163.108,33.4493333 163.182667,33.6266667 163.332,33.776 C163.481333,33.9253333 163.658667,34 163.864,34 L163.864,34 L178.452,34 Z M187.608,34 C187.813333,34 187.990667,33.9253333 188.14,33.776 C188.289333,33.6266667 188.364,33.4493333 188.364,33.244 L188.364,33.244 L188.364,26.216 L193.096,33.356 C193.152,33.4306667 193.264,33.5566667 193.432,33.734 C193.6,33.9113333 193.870667,34 194.244,34 L194.244,34 L198.668,34 C198.873333,34 199.050667,33.9253333 199.2,33.776 C199.349333,33.6266667 199.424,33.4493333 199.424,33.244 L199.424,33.244 L199.424,15.156 C199.424,14.9506667 199.349333,14.7733333 199.2,14.624 C199.050667,14.4746667 198.873333,14.4 198.668,14.4 L198.668,14.4 L193.6,14.4 C193.394667,14.4 193.217333,14.4746667 193.068,14.624 C192.918667,14.7733333 192.844,14.9506667 192.844,15.156 L192.844,15.156 L192.844,22.8 L188.112,15.044 C188.056,14.9506667 187.944,14.82 187.776,14.652 C187.608,14.484 187.337333,14.4 186.964,14.4 L186.964,14.4 L182.54,14.4 C182.334667,14.4 182.157333,14.4746667 182.008,14.624 C181.858667,14.7733333 181.784,14.9506667 181.784,15.156 L181.784,15.156 L181.784,33.244 C181.784,33.4493333 181.858667,33.6266667 182.008,33.776 C182.157333,33.9253333 182.334667,34 182.54,34 L182.54,34 L187.608,34 Z M105.372,58 C107.070667,58 108.503333,57.776 109.67,57.328 C110.836667,56.88 111.728,56.2033333 112.344,55.298 C112.96,54.3926667 113.268,53.24 113.268,51.84 C113.268,50.9066667 113.002,50.0713333 112.47,49.334 C111.938,48.5966667 111.317333,48.0786667 110.608,47.78 C110.906667,47.6306667 111.228667,47.3973333 111.574,47.08 C111.919333,46.7626667 112.218,46.366 112.47,45.89 C112.722,45.414 112.848,44.8773333 112.848,44.28 C112.848,42.9733333 112.572667,41.886 112.022,41.018 C111.471333,40.15 110.626667,39.4966667 109.488,39.058 C108.349333,38.6193333 106.884,38.4 105.092,38.4 L105.092,38.4 L95.796,38.4 C95.5906667,38.4 95.4133333,38.4746667 95.264,38.624 C95.1146667,38.7733333 95.04,38.9506667 95.04,39.156 L95.04,39.156 L95.04,57.244 C95.04,57.4493333 95.1146667,57.6266667 95.264,57.776 C95.4133333,57.9253333 95.5906667,58 95.796,58 L95.796,58 L105.372,58 Z M104.392,45.764 L102.04,45.764 L102.04,43.216 L104.392,43.216 C104.802667,43.216 105.096667,43.356 105.274,43.636 C105.451333,43.916 105.54,44.2053333 105.54,44.504 C105.54,44.8026667 105.451333,45.0873333 105.274,45.358 C105.096667,45.6286667 104.802667,45.764 104.392,45.764 L104.392,45.764 Z M104.644,53.184 L102.04,53.184 L102.04,50.44 L104.644,50.44 C105.073333,50.44 105.395333,50.5846667 105.61,50.874 C105.824667,51.1633333 105.932,51.476 105.932,51.812 C105.932,52.1106667 105.834,52.414 105.638,52.722 C105.442,53.03 105.110667,53.184 104.644,53.184 L104.644,53.184 Z M130.936,58 C131.141333,58 131.318667,57.9253333 131.468,57.776 C131.617333,57.6266667 131.692,57.4493333 131.692,57.244 L131.692,57.244 L131.692,53.296 C131.692,53.0906667 131.617333,52.9133333 131.468,52.764 C131.318667,52.6146667 131.141333,52.54 130.936,52.54 L130.936,52.54 L122.312,52.54 L122.312,50.776 L130.096,50.776 C130.301333,50.776 130.478667,50.7013333 130.628,50.552 C130.777333,50.4026667 130.852,50.2253333 130.852,50.02 L130.852,50.02 L130.852,46.38 C130.852,46.1746667 130.777333,45.9973333 130.628,45.848 C130.478667,45.6986667 130.301333,45.624 130.096,45.624 L130.096,45.624 L122.312,45.624 L122.312,43.86 L130.712,43.86 C130.917333,43.86 131.094667,43.7853333 131.244,43.636 C131.393333,43.4866667 131.468,43.3093333 131.468,43.104 L131.468,43.104 L131.468,39.156 C131.468,38.9506667 131.393333,38.7733333 131.244,38.624 C131.094667,38.4746667 130.917333,38.4 130.712,38.4 L130.712,38.4 L116.348,38.4 C116.142667,38.4 115.965333,38.4746667 115.816,38.624 C115.666667,38.7733333 115.592,38.9506667 115.592,39.156 L115.592,39.156 L115.592,57.244 C115.592,57.4493333 115.666667,57.6266667 115.816,57.776 C115.965333,57.9253333 116.142667,58 116.348,58 L116.348,58 L130.936,58 Z M138.524,58 C138.897333,58 139.158667,57.9206667 139.308,57.762 C139.457333,57.6033333 139.56,57.4493333 139.616,57.3 L139.616,57.3 L140.288,55.452 L146.308,55.452 L146.98,57.3 C147.036,57.4493333 147.143333,57.6033333 147.302,57.762 C147.460667,57.9206667 147.717333,58 148.072,58 L148.072,58 L153.252,58 C153.42,58 153.564667,57.9393333 153.686,57.818 C153.807333,57.6966667 153.868,57.552 153.868,57.384 C153.868,57.3093333 153.858667,57.244 153.84,57.188 L153.84,57.188 L147.596,39.324 C147.54,39.1186667 147.409333,38.9133333 147.204,38.708 C146.998667,38.5026667 146.709333,38.4 146.336,38.4 L146.336,38.4 L140.26,38.4 C139.886667,38.4 139.597333,38.5026667 139.392,38.708 C139.186667,38.9133333 139.056,39.1186667 139,39.324 L139,39.324 L132.756,57.188 C132.737333,57.244 132.728,57.3093333 132.728,57.384 C132.728,57.552 132.788667,57.6966667 132.91,57.818 C133.031333,57.9393333 133.176,58 133.344,58 L133.344,58 L138.524,58 Z M144.88,49.992 L141.716,49.992 L143.284,44.784 L144.88,49.992 Z M161.232,58 C161.437333,58 161.614667,57.9253333 161.764,57.776 C161.913333,57.6266667 161.988,57.4493333 161.988,57.244 L161.988,57.244 L161.988,50.216 L166.72,57.356 C166.776,57.4306667 166.888,57.5566667 167.056,57.734 C167.224,57.9113333 167.494667,58 167.868,58 L167.868,58 L172.292,58 C172.497333,58 172.674667,57.9253333 172.824,57.776 C172.973333,57.6266667 173.048,57.4493333 173.048,57.244 L173.048,57.244 L173.048,39.156 C173.048,38.9506667 172.973333,38.7733333 172.824,38.624 C172.674667,38.4746667 172.497333,38.4 172.292,38.4 L172.292,38.4 L167.224,38.4 C167.018667,38.4 166.841333,38.4746667 166.692,38.624 C166.542667,38.7733333 166.468,38.9506667 166.468,39.156 L166.468,39.156 L166.468,46.8 L161.736,39.044 C161.68,38.9506667 161.568,38.82 161.4,38.652 C161.232,38.484 160.961333,38.4 160.588,38.4 L160.588,38.4 L156.164,38.4 C155.958667,38.4 155.781333,38.4746667 155.632,38.624 C155.482667,38.7733333 155.408,38.9506667 155.408,39.156 L155.408,39.156 L155.408,57.244 C155.408,57.4493333 155.482667,57.6266667 155.632,57.776 C155.781333,57.9253333 155.958667,58 156.164,58 L156.164,58 L161.232,58 Z M184.304,58.28 C186.077333,58.28 187.664,58.014 189.064,57.482 C190.464,56.95 191.57,56.1893333 192.382,55.2 C193.194,54.2106667 193.6,53.0346667 193.6,51.672 C193.6,50.4586667 193.343333,49.4413333 192.83,48.62 C192.316667,47.7986667 191.495333,47.1406667 190.366,46.646 C189.236667,46.1513333 187.738667,45.792 185.872,45.568 C185.032,45.456 184.388,45.344 183.94,45.232 C183.492,45.12 183.184,44.9893333 183.016,44.84 C182.848,44.6906667 182.764,44.532 182.764,44.364 C182.764,44.1213333 182.871333,43.93 183.086,43.79 C183.300667,43.65 183.641333,43.58 184.108,43.58 C184.5,43.58 184.822,43.6406667 185.074,43.762 C185.326,43.8833333 185.498667,43.9906667 185.592,44.084 C185.76,44.2333333 185.923333,44.3453333 186.082,44.42 C186.240667,44.4946667 186.450667,44.532 186.712,44.532 L186.712,44.532 L192.312,44.532 C192.461333,44.532 192.596667,44.4713333 192.718,44.35 C192.839333,44.2286667 192.9,44.084 192.9,43.916 C192.881333,43.3 192.676,42.656 192.284,41.984 C191.892,41.312 191.322667,40.682 190.576,40.094 C189.829333,39.506 188.914667,39.03 187.832,38.666 C186.749333,38.302 185.508,38.12 184.108,38.12 C182.409333,38.12 180.920667,38.3906667 179.642,38.932 C178.363333,39.4733333 177.364667,40.2293333 176.646,41.2 C175.927333,42.1706667 175.568,43.2906667 175.568,44.56 C175.568,45.792 175.862,46.8326667 176.45,47.682 C177.038,48.5313333 177.873333,49.1986667 178.956,49.684 C180.038667,50.1693333 181.317333,50.5146667 182.792,50.72 C183.725333,50.832 184.453333,50.9486667 184.976,51.07 C185.498667,51.1913333 185.867333,51.3266667 186.082,51.476 C186.296667,51.6253333 186.404,51.812 186.404,52.036 C186.404,52.2786667 186.212667,52.47 185.83,52.61 C185.447333,52.75 184.938667,52.82 184.304,52.82 C184.005333,52.82 183.73,52.7966667 183.478,52.75 C183.226,52.7033333 183.002,52.6286667 182.806,52.526 C182.61,52.4233333 182.418667,52.3066667 182.232,52.176 C182.045333,52.0266667 181.872667,51.91 181.714,51.826 C181.555333,51.742 181.326667,51.7 181.028,51.7 L181.028,51.7 L175.708,51.7 C175.54,51.7 175.395333,51.7606667 175.274,51.882 C175.152667,52.0033333 175.092,52.148 175.092,52.316 C175.129333,53.3426667 175.484,54.3133333 176.156,55.228 C176.828,56.1426667 177.836,56.88 179.18,57.44 C180.524,58 182.232,58.28 184.304,58.28 Z" id="KITTENBEANS" fill="#000000" fill-rule="nonzero"></path>
                <g id="Logo">
                    <rect id="Rectangle" x="0" y="0" width="85" height="64"></rect>
                    <g id="Group" transform="translate(4.000000, 4.000000)" fill="#000000">
                        <path d="M33.4868822,9.07944076 L43.1062672,0.306988482 C43.4502292,-0.00651903873 43.948204,-0.0877750696 44.3743062,0.0996896315 C44.8010501,0.287154333 45.076348,0.707510335 45.076348,1.17265313 L45.076348,9.07944076 L55.7455871,9.07944076 C57.0912743,9.07944076 58.3811318,9.61240354 59.3328027,10.5606038 C59.9899242,11.2157706 60.4481123,12.0321698 60.6688641,12.9170287 L63.98014,12.9170287 C71.1712559,12.9170287 77,18.7284345 77,25.8981595 L77,32.6212963 C77,36.7570363 75.3520627,40.7238662 72.4187599,43.6484435 C69.4854571,46.5730208 65.507434,48.2160561 61.3587132,48.2160561 L57.66048,48.2160561 C54.415943,52.9180291 48.9818568,56 42.8258355,56 C34.9865822,56 25.8176848,56 17.9803567,56 C13.2130178,56 8.64076173,54.111917 5.2691641,50.7503486 C1.89820818,47.38942 0.00385032086,42.8307647 0.00385032086,38.076967 L0.00385032086,9.71733259 L0,9.71733259 C0,9.71733259 0,5.74986293 0,2.96604411 C0,2.50154113 0.275297941,2.08054531 0.702041837,1.89308061 C1.12814401,1.70561591 1.62547712,1.78751175 1.96943912,2.10101927 L9.62195183,9.07944076 L33.4868822,9.07944076 Z M60.8183849,20.9146696 L60.8183849,38.0609717 C60.8183849,38.7909964 60.7747479,39.510784 60.6900408,40.2184153 L61.3587132,40.2184153 C63.37949,40.2184153 65.3181265,39.4180114 66.7465955,37.9931517 C68.1757063,36.568292 68.9784982,34.636062 68.9784982,32.6212963 L68.9784982,25.8981595 C68.9784982,23.1456915 66.7408201,20.9146696 63.98014,20.9146696 L60.8183849,20.9146696 Z" id="Shape"></path>
                    </g>
                    <g id="Group" transform="translate(26.500000, 35.500000) rotate(-180.000000) translate(-26.500000, -35.500000) translate(22.000000, 32.000000)" fill="#FFFFFF">
                        <path d="M3.61999715,0.444119989 C3.82034506,0.165383594 4.14818709,0 4.50334929,0 C4.85851149,0 5.18635352,0.165383594 5.38670143,0.444119989 C6.28826701,1.6693213 7.69980909,3.58764711 8.76529569,5.03335988 C9.03849738,5.41182196 9.07492427,5.9104504 8.86546964,6.32483851 C8.64690829,6.73922662 8.20067886,7 7.72712926,7 C5.81471741,7 3.18287445,7 1.2704626,7 C0.796913002,7 0.359790294,6.74046545 0.141228941,6.32669675 C-0.0773324131,5.91354747 -0.0409055208,5.41615786 0.241402894,5.03831519 C1.30688949,3.59198301 2.71843157,1.67056013 3.61999715,0.444119989 Z" id="Path"></path>
                    </g>
                    <g id="Group" transform="translate(10.000000, 23.000000)" fill="#FFFFFF">
                        <path d="M1.92711479,4.18012803 C2.16367493,2.97320819 3.16793969,2.41221223 4.24361883,2.16450585 C6.04236859,1.74930278 8.39457982,2.43250056 9.12211385,4.35423023 C9.3229668,4.88078321 9.88981846,5.13698238 10.3897191,4.92607809 C10.8851564,4.71470199 11.1306434,4.11548846 10.9297904,3.58846365 C9.85411127,0.758005445 6.47978169,-0.45693536 3.82852273,0.154545527 C1.99852917,0.577297745 0.422949353,1.70636701 0.0212434501,3.76256585 C-0.0903415229,4.31837178 0.248876795,4.86285399 0.775557867,4.9784503 C1.30223894,5.09357479 1.81552982,4.73593396 1.92711479,4.18012803 Z" id="Path"></path>
                    </g>
                    <g id="Group" transform="translate(36.500000, 25.500000) scale(-1, 1) translate(-36.500000, -25.500000) translate(31.000000, 23.000000)" fill="#FFFFFF">
                        <path d="M0.0212434501,3.76256585 C0.422949353,1.70636701 1.99852917,0.577297745 3.82852273,0.154545527 C6.47978169,-0.45693536 9.85411127,0.758005445 10.9297904,3.58846365 C11.1306434,4.11548846 10.8851564,4.71470199 10.3897191,4.92607809 C9.88981846,5.13698238 9.3229668,4.88078321 9.12211385,4.35423023 C8.39457982,2.43250056 6.04236859,1.74930278 4.24361883,2.16450585 C3.16793969,2.41221223 2.16367493,2.97320819 1.92711479,4.18012803 C1.81552982,4.73593396 1.30223894,5.09357479 0.775557867,4.9784503 C0.248876795,4.86285399 -0.0903415229,4.31837178 0.0212434501,3.76256585 Z" id="Path"></path>
                    </g>
                </g>
            </g>
        </g>
    </g>
</svg>